<svg xmlns="http://www.w3.org/2000/svg" xmlns:xlink="http://www.w3.org/1999/xlink" width="113.844" height="31.072" viewBox="0 0 113.844 31.072">
  <defs>
    <clipPath id="clip-path">
      <rect id="Rectangle_15" data-name="Rectangle 15" width="113.844" height="31.072" fill="#b9b9b9"/>
    </clipPath>
    <clipPath id="clip-path-2">
      <rect id="Rectangle_13" data-name="Rectangle 13" width="25.688" height="31.072" fill="#b9b9b9"/>
    </clipPath>
    <clipPath id="clip-path-3">
      <rect id="Rectangle_14" data-name="Rectangle 14" width="19.873" height="23.879" fill="#b9b9b9"/>
    </clipPath>
  </defs>
  <g id="SFC_logo-gray" transform="translate(0 0.001)">
    <g id="Group_15" data-name="Group 15" transform="translate(0 -0.001)" clip-path="url(#clip-path)">
      <g id="Group_11" data-name="Group 11" style="mix-blend-mode: normal;isolation: isolate">
        <g id="Group_10" data-name="Group 10">
          <g id="Group_9" data-name="Group 9" clip-path="url(#clip-path-2)">
            <path id="Path_1342" data-name="Path 1342" d="M25.688,27.3A15.536,15.536,0,1,1,25.37,3.508,13.508,13.508,0,1,0,25.688,27.3" fill="#b9b9b9"/>
          </g>
        </g>
      </g>
      <g id="Group_14" data-name="Group 14" transform="translate(11.198 3.596)" style="mix-blend-mode: normal;isolation: isolate">
        <g id="Group_13" data-name="Group 13">
          <g id="Group_12" data-name="Group 12" clip-path="url(#clip-path-3)">
            <path id="Path_1343" data-name="Path 1343" d="M165.833,58.81a11.939,11.939,0,0,1-19.873,8.922,9.976,9.976,0,1,0,.186-18.007,11.94,11.94,0,0,1,19.687,9.085" transform="translate(-145.96 -46.87)" fill="#b9b9b9"/>
          </g>
        </g>
      </g>
      <path id="Path_1344" data-name="Path 1344" d="M102.547,107.01a4.54,4.54,0,0,1-.548,1.814,17.978,17.978,0,0,1-4.766,6.08,10.557,10.557,0,0,1-1.093.765c-.068.042-.256.135-.494.242A8.681,8.681,0,0,1,94.208,99.68a13.019,13.019,0,0,0-2.8,5.436c-.452,2.157.874,3.235,2.5,2.984a17.11,17.11,0,0,0,2.861-.806,33.245,33.245,0,0,1,3.865-1.188,4.832,4.832,0,0,1,.983-.114c.676,0,.957.344.928,1.016" transform="translate(-82.384 -92.033)" fill="#b9b9b9"/>
      <path id="Path_1345" data-name="Path 1345" d="M152.022,97.579a8.68,8.68,0,0,1-7.3,8.57c.179-.162.384-.354.618-.582A19.838,19.838,0,0,0,149.2,99.7a6.354,6.354,0,0,0,.6-2.392A2.539,2.539,0,0,0,146.97,94.4a10.087,10.087,0,0,0-3.608.737q-1.738.638-3.477,1.269a3.117,3.117,0,0,1-.931.191c-.353.016-.5-.116-.513-.483a5.127,5.127,0,0,1,.4-1.854,14.371,14.371,0,0,1,2.521-4.287,5.379,5.379,0,0,1,1.122-1.03c.283-.028.572-.042.862-.042a8.678,8.678,0,0,1,8.678,8.679" transform="translate(-127.819 -82.08)" fill="#b9b9b9"/>
      <path id="Path_1346" data-name="Path 1346" d="M472.656,60.5a5.853,5.853,0,0,1-2.427-.5,4.4,4.4,0,0,1-1.754-1.348l1.417-1.572a3.587,3.587,0,0,0,2.851,1.313,2.893,2.893,0,0,0,1.866-.544,1.572,1.572,0,0,0,.674-1.235,1.17,1.17,0,0,0-.052-.354.747.747,0,0,0-.19-.3q-.138-.138-.251-.233a1.775,1.775,0,0,0-.371-.216q-.259-.121-.415-.181l-.51-.2-.527-.207a5.874,5.874,0,0,1-2.065-1.244,2.623,2.623,0,0,1-.752-1.952,3.542,3.542,0,0,1,1.356-2.851,5.3,5.3,0,0,1,3.5-1.123,5.376,5.376,0,0,1,3.663,1.3l-1.313,1.607a3.64,3.64,0,0,0-2.4-.881,2.853,2.853,0,0,0-1.719.484,1.407,1.407,0,0,0-.665,1.158,1.138,1.138,0,0,0,.449.942,5.753,5.753,0,0,0,1.434.734q.639.242.942.363a7.047,7.047,0,0,1,.838.432,3.277,3.277,0,0,1,.8.613,3.034,3.034,0,0,1,.484.795,2.7,2.7,0,0,1,.216,1.1,3.67,3.67,0,0,1-1.425,2.92,5.5,5.5,0,0,1-3.654,1.192" transform="translate(-432.534 -44.082)" fill="#b9b9b9"/>
      <path id="Path_1347" data-name="Path 1347" d="M599.211,95.938a2.859,2.859,0,0,1,2.2.907,3.564,3.564,0,0,1,.838,2.514,6.471,6.471,0,0,1-.562,2.661,5.239,5.239,0,0,1-1.771,2.134,4.686,4.686,0,0,1-2.816.873,4.115,4.115,0,0,1-1.8-.38l-.6,3.4h-2.367l2.108-11.887h2.229l-.121.674a4.618,4.618,0,0,1,2.661-.9m-2.142,7.136a2.319,2.319,0,0,0,2.039-1.08,4.2,4.2,0,0,0,.726-2.393,2,2,0,0,0-.363-1.27,1.3,1.3,0,0,0-1.089-.458,3.2,3.2,0,0,0-2.021.812l-.708,4.043a3.13,3.13,0,0,0,1.417.346" transform="translate(-546.892 -88.578)" fill="#b9b9b9"/>
      <path id="Path_1348" data-name="Path 1348" d="M742.3,98.547a3.139,3.139,0,0,1-.078.691,2.773,2.773,0,0,1-.942,1.46,3.214,3.214,0,0,1-1.045.51,5.145,5.145,0,0,1-1.529.207h-2.747a1.651,1.651,0,0,0,1.866,1.676,5.382,5.382,0,0,0,2.8-.916l.708,1.607a6.642,6.642,0,0,1-3.87,1.21,3.678,3.678,0,0,1-2.721-.976,3.491,3.491,0,0,1-.976-2.583,5.407,5.407,0,0,1,.346-1.875A6.379,6.379,0,0,1,735.1,97.8a4.839,4.839,0,0,1,1.71-1.339,5.267,5.267,0,0,1,2.341-.518,3.568,3.568,0,0,1,2.255.691,2.293,2.293,0,0,1,.89,1.918m-3.317-.812a2.6,2.6,0,0,0-1.685.6,3.5,3.5,0,0,0-1.08,1.512h2.523a1.506,1.506,0,0,0,1.08-.354,1.1,1.1,0,0,0,.372-.821.83.83,0,0,0-.311-.682,1.4,1.4,0,0,0-.9-.251" transform="translate(-677.468 -88.578)" fill="#b9b9b9"/>
      <path id="Path_1349" data-name="Path 1349" d="M856.768,104.991a3.738,3.738,0,0,1-2.626-.933,3.38,3.38,0,0,1-1.019-2.626,5.73,5.73,0,0,1,1.417-3.836,4.783,4.783,0,0,1,3.836-1.659,4.047,4.047,0,0,1,2.168.57A2.84,2.84,0,0,1,861.8,98.15l-1.935.795a1.545,1.545,0,0,0-1.59-1.071,2.386,2.386,0,0,0-2.03,1.028,3.947,3.947,0,0,0-.752,2.393,1.724,1.724,0,0,0,.458,1.313,1.654,1.654,0,0,0,1.184.432,3.149,3.149,0,0,0,2.384-1.417l1.538,1.192a5.09,5.09,0,0,1-1.814,1.581,5.187,5.187,0,0,1-2.471.6" transform="translate(-787.671 -88.578)" fill="#b9b9b9"/>
      <path id="Path_1350" data-name="Path 1350" d="M979.952,68.262l-.674,3.836a1.321,1.321,0,0,0-.035.346q0,.933.968.933a3.308,3.308,0,0,0,1.5-.432l.466,1.745a5.912,5.912,0,0,1-2.833.778q-2.488,0-2.488-2.332a4.83,4.83,0,0,1,.069-.829l.691-4.043h-1.313l.294-1.624h1.3l.449-2.678h2.35l-.449,2.678h2.8l-.294,1.624Z" transform="translate(-901.404 -59.053)" fill="#b9b9b9"/>
      <path id="Path_1351" data-name="Path 1351" d="M1071.186,95.938a2.388,2.388,0,0,1,1.278.311l-.777,1.866a2.675,2.675,0,0,0-.985-.19,4.021,4.021,0,0,0-2.471.95l-1.037,5.926h-2.384l1.521-8.639h2.3l-.173.95a4.157,4.157,0,0,1,2.73-1.175" transform="translate(-983.119 -88.578)" fill="#b9b9b9"/>
      <path id="Path_1352" data-name="Path 1352" d="M1169.377,98.866h2.332l-1.52,8.656-2.229-.017.173-.95a5.972,5.972,0,0,1-3.248,1.158,2.262,2.262,0,0,1-1.892-.777,2.7,2.7,0,0,1-.371-2.194l1.019-5.874h2.367l-.968,5.511a1.476,1.476,0,0,0,.078,1.063.88.88,0,0,0,.786.32,4.284,4.284,0,0,0,2.471-1.019Z" transform="translate(-1073.363 -91.281)" fill="#b9b9b9"/>
      <path id="Path_1353" data-name="Path 1353" d="M1301.648,95.955a2.64,2.64,0,0,1,1.754.544,1.99,1.99,0,0,1,.648,1.615,6.553,6.553,0,0,1-.069.812l-1.036,5.874h-2.4l.95-5.408a5.316,5.316,0,0,0,.086-.691q0-.812-.95-.812a4.031,4.031,0,0,0-2.367.968l-1.054,5.944h-2.4l.985-5.529a3.476,3.476,0,0,0,.052-.57q0-.812-.9-.812a4.043,4.043,0,0,0-2.4,1.054l-1.036,5.857h-2.4l1.52-8.639h2.229l-.19,1.071a5.717,5.717,0,0,1,3.386-1.3,1.965,1.965,0,0,1,2.143,1.313,5.956,5.956,0,0,1,3.455-1.3" transform="translate(-1190.206 -88.578)" fill="#b9b9b9"/>
      <path id="Path_1354" data-name="Path 1354" d="M620.917,279h-1.912l-.184,1.036h1.667l-.129.741h-1.667l-.331,1.857h-.87l.711-4.02a.42.42,0,0,1,.153-.257.43.43,0,0,1,.276-.1h2.42Z" transform="translate(-570.118 -256.912)" fill="#b9b9b9"/>
      <path id="Path_1355" data-name="Path 1355" d="M660.461,281.9l.545-3.064h.839l-.558,3.064Zm1.048-3.431a.392.392,0,0,1-.429-.417.591.591,0,0,1,.156-.423.535.535,0,0,1,.407-.165.427.427,0,0,1,.325.123.391.391,0,0,1,.11.294.6.6,0,0,1-.153.42.535.535,0,0,1-.417.169" transform="translate(-609.791 -256.174)" fill="#b9b9b9"/>
      <path id="Path_1356" data-name="Path 1356" d="M683.72,279.509a1.029,1.029,0,0,1,.791.316,1.2,1.2,0,0,1,.294.855,2.143,2.143,0,0,1-.132.744,2.119,2.119,0,0,1-.377.646,1.731,1.731,0,0,1-.637.46,2.166,2.166,0,0,1-.876.172,2.006,2.006,0,0,1-1.238-.343l.711-4.1h.833l-.27,1.538a1.611,1.611,0,0,1,.9-.288m-.913,2.5a1.018,1.018,0,0,0,.833-.386,1.347,1.347,0,0,0,.313-.87.588.588,0,0,0-.141-.423.487.487,0,0,0-.368-.147,1.11,1.11,0,0,0-.741.306l-.257,1.458a1,1,0,0,0,.362.061" transform="translate(-629.257 -256.911)" fill="#b9b9b9"/>
      <path id="Path_1357" data-name="Path 1357" d="M729.651,294.313a.846.846,0,0,1,.453.11l-.276.662a.95.95,0,0,0-.349-.067,1.426,1.426,0,0,0-.876.337l-.368,2.1h-.846l.539-3.064h.815l-.061.337a1.475,1.475,0,0,1,.968-.417" transform="translate(-671.585 -271.733)" fill="#b9b9b9"/>
      <path id="Path_1358" data-name="Path 1358" d="M763.083,295.238a1.11,1.11,0,0,1-.028.245.986.986,0,0,1-.334.518,1.141,1.141,0,0,1-.371.181,1.823,1.823,0,0,1-.542.074h-.974a.585.585,0,0,0,.662.594,1.908,1.908,0,0,0,.993-.325l.251.57a2.356,2.356,0,0,1-1.372.429,1.3,1.3,0,0,1-.965-.346,1.238,1.238,0,0,1-.346-.916,1.917,1.917,0,0,1,.123-.665,2.262,2.262,0,0,1,.352-.625,1.716,1.716,0,0,1,.607-.475,1.867,1.867,0,0,1,.83-.184,1.266,1.266,0,0,1,.8.245.813.813,0,0,1,.315.68m-1.177-.288a.922.922,0,0,0-.6.211,1.24,1.24,0,0,0-.383.536h.895a.535.535,0,0,0,.383-.126.391.391,0,0,0,.132-.291.294.294,0,0,0-.11-.242.5.5,0,0,0-.319-.089" transform="translate(-701.745 -271.733)" fill="#b9b9b9"/>
      <path id="Path_1359" data-name="Path 1359" d="M824.15,281.744a1.82,1.82,0,0,1-1.321-.46,1.733,1.733,0,0,1-.475-1.305,2.932,2.932,0,0,1,.175-1,3.052,3.052,0,0,1,.49-.882,2.321,2.321,0,0,1,.812-.637,2.454,2.454,0,0,1,1.091-.242,1.76,1.76,0,0,1,1.023.291,1.448,1.448,0,0,1,.576.806l-.729.312a.927.927,0,0,0-.944-.643,1.412,1.412,0,0,0-.7.175,1.464,1.464,0,0,0-.509.457,2.3,2.3,0,0,0-.3.613,2.193,2.193,0,0,0-.1.662,1.094,1.094,0,0,0,.266.787.981.981,0,0,0,.745.279,1.9,1.9,0,0,0,1.323-.631l.509.533a2.716,2.716,0,0,1-.855.637,2.446,2.446,0,0,1-1.082.245" transform="translate(-759.264 -255.953)" fill="#b9b9b9"/>
      <path id="Path_1360" data-name="Path 1360" d="M877.269,297.524a1.216,1.216,0,0,1-1.324-1.287,2.4,2.4,0,0,1,.031-.355,1.942,1.942,0,0,1,.6-1.143,1.668,1.668,0,0,1,1.155-.426,1.311,1.311,0,0,1,.993.352,1.271,1.271,0,0,1,.337.916,2.207,2.207,0,0,1-.628,1.514,1.678,1.678,0,0,1-1.167.429m.043-.686a.77.77,0,0,0,.585-.251,1.386,1.386,0,0,0,.322-.711,1.6,1.6,0,0,0,.031-.282.663.663,0,0,0-.135-.441.516.516,0,0,0-.417-.159.773.773,0,0,0-.582.251,1.391,1.391,0,0,0-.325.729,1.438,1.438,0,0,0-.024.27q0,.594.545.594" transform="translate(-808.743 -271.733)" fill="#b9b9b9"/>
      <path id="Path_1361" data-name="Path 1361" d="M924.563,294.319a.936.936,0,0,1,.622.193.706.706,0,0,1,.23.573,2.34,2.34,0,0,1-.025.288l-.368,2.083h-.852l.337-1.918a1.887,1.887,0,0,0,.031-.245q0-.288-.337-.288a1.43,1.43,0,0,0-.839.343l-.374,2.108h-.852l.349-1.961a1.242,1.242,0,0,0,.018-.2q0-.288-.319-.288a1.434,1.434,0,0,0-.852.374l-.368,2.077h-.852l.539-3.064h.791l-.067.38a2.028,2.028,0,0,1,1.2-.46.7.7,0,0,1,.76.466,2.113,2.113,0,0,1,1.226-.46" transform="translate(-849.524 -271.733)" fill="#b9b9b9"/>
      <path id="Path_1362" data-name="Path 1362" d="M993.075,294.313a1.014,1.014,0,0,1,.781.322,1.264,1.264,0,0,1,.3.892,2.293,2.293,0,0,1-.2.944,1.857,1.857,0,0,1-.628.757,1.662,1.662,0,0,1-1,.309,1.46,1.46,0,0,1-.637-.135l-.214,1.207h-.84l.748-4.216h.791l-.043.239a1.638,1.638,0,0,1,.944-.319m-.76,2.531a.822.822,0,0,0,.723-.383,1.489,1.489,0,0,0,.257-.849.707.707,0,0,0-.129-.45.463.463,0,0,0-.386-.162,1.136,1.136,0,0,0-.717.288l-.251,1.434a1.11,1.11,0,0,0,.5.122" transform="translate(-914.635 -271.733)" fill="#b9b9b9"/>
      <path id="Path_1363" data-name="Path 1363" d="M1043.441,294.394h.766l-.539,3.064h-.76l.055-.306a1.32,1.32,0,0,1-.943.38,1.09,1.09,0,0,1-.836-.331,1.266,1.266,0,0,1-.31-.9,2.358,2.358,0,0,1,.19-.931,1.84,1.84,0,0,1,.585-.751,1.445,1.445,0,0,1,.9-.3.927.927,0,0,1,.833.4Zm-1.17,2.457a.758.758,0,0,0,.423-.12.822.822,0,0,0,.285-.312,1.843,1.843,0,0,0,.153-.4,1.624,1.624,0,0,0,.052-.4q0-.619-.564-.619a.753.753,0,0,0-.686.386,1.618,1.618,0,0,0-.233.852q.006.613.57.613" transform="translate(-961.019 -271.734)" fill="#b9b9b9"/>
      <path id="Path_1364" data-name="Path 1364" d="M1089.362,294.313a.868.868,0,0,1,.6.193.726.726,0,0,1,.217.573,2.023,2.023,0,0,1-.031.343l-.361,2.034h-.852l.325-1.814a1.691,1.691,0,0,0,.043-.337q0-.3-.331-.3a1.507,1.507,0,0,0-.864.337l-.368,2.114h-.858l.539-3.064h.79l-.055.325a2.166,2.166,0,0,1,1.207-.4" transform="translate(-1003.495 -271.733)" fill="#b9b9b9"/>
      <path id="Path_1365" data-name="Path 1365" d="M1135.07,295.352h.821l-.453,2.586a1.825,1.825,0,0,1-1.924,1.74,1.991,1.991,0,0,1-.87-.172l.214-.637a1.93,1.93,0,0,0,.662.123,1.024,1.024,0,0,0,.7-.224,1.237,1.237,0,0,0,.355-.653,1.663,1.663,0,0,1-.993.368.892.892,0,0,1-.622-.208.746.746,0,0,1-.23-.582,1.353,1.353,0,0,1,.024-.263l.368-2.077h.809l-.337,1.887a1.218,1.218,0,0,0-.031.239q0,.312.362.313a1.406,1.406,0,0,0,.766-.294Z" transform="translate(-1045.747 -272.693)" fill="#b9b9b9"/>
      <path id="Path_1366" data-name="Path 1366" d="M1197.564,282.635a.288.288,0,0,1-.236-.1.307.307,0,0,1-.058-.254l.711-4.02h.864l-.637,3.64h1.893l-.129.735Z" transform="translate(-1105.411 -256.912)" fill="#b9b9b9"/>
      <path id="Path_1367" data-name="Path 1367" d="M1238.231,281.9l.545-3.064h.839l-.558,3.064Zm1.048-3.431a.392.392,0,0,1-.429-.417.59.59,0,0,1,.156-.423.535.535,0,0,1,.407-.165.427.427,0,0,1,.325.123.391.391,0,0,1,.11.294.6.6,0,0,1-.153.42.535.535,0,0,1-.417.169" transform="translate(-1143.235 -256.174)" fill="#b9b9b9"/>
      <path id="Path_1368" data-name="Path 1368" d="M1263.283,294.319a.936.936,0,0,1,.622.193.7.7,0,0,1,.23.573,2.34,2.34,0,0,1-.025.288l-.368,2.083h-.852l.337-1.918a1.865,1.865,0,0,0,.031-.245q0-.288-.337-.288a1.429,1.429,0,0,0-.839.343l-.374,2.108h-.852l.349-1.961a1.228,1.228,0,0,0,.018-.2q0-.288-.319-.288a1.435,1.435,0,0,0-.852.374l-.368,2.077h-.852l.539-3.064h.791l-.067.38a2.027,2.027,0,0,1,1.2-.46.7.7,0,0,1,.76.466,2.113,2.113,0,0,1,1.225-.46" transform="translate(-1162.258 -271.733)" fill="#b9b9b9"/>
      <path id="Path_1369" data-name="Path 1369" d="M1331.756,281.9l.545-3.064h.839l-.557,3.064Zm1.048-3.431a.392.392,0,0,1-.429-.417.591.591,0,0,1,.156-.423.535.535,0,0,1,.407-.165.427.427,0,0,1,.325.123.392.392,0,0,1,.11.294.6.6,0,0,1-.153.42.535.535,0,0,1-.417.169" transform="translate(-1229.585 -256.174)" fill="#b9b9b9"/>
      <path id="Path_1370" data-name="Path 1370" d="M1355.969,284.5l-.239,1.36a.467.467,0,0,0-.012.123q0,.331.343.331a1.174,1.174,0,0,0,.533-.153l.165.619a2.1,2.1,0,0,1-1,.276q-.882,0-.882-.827a1.738,1.738,0,0,1,.024-.294l.245-1.434h-.466l.1-.576h.459l.159-.95h.834l-.16.95h.993l-.1.576Z" transform="translate(-1250.746 -261.262)" fill="#b9b9b9"/>
      <path id="Path_1371" data-name="Path 1371" d="M1389.652,295.238a1.109,1.109,0,0,1-.027.245.986.986,0,0,1-.334.518,1.142,1.142,0,0,1-.371.181,1.821,1.821,0,0,1-.542.074h-.974a.585.585,0,0,0,.662.594,1.909,1.909,0,0,0,.993-.325l.251.57a2.356,2.356,0,0,1-1.373.429,1.3,1.3,0,0,1-.965-.346,1.238,1.238,0,0,1-.346-.916,1.917,1.917,0,0,1,.122-.665,2.262,2.262,0,0,1,.352-.625,1.715,1.715,0,0,1,.607-.475,1.866,1.866,0,0,1,.83-.184,1.265,1.265,0,0,1,.8.245.813.813,0,0,1,.315.68m-1.176-.288a.922.922,0,0,0-.6.211,1.241,1.241,0,0,0-.383.536h.895a.534.534,0,0,0,.383-.126.39.39,0,0,0,.132-.291.294.294,0,0,0-.11-.242.5.5,0,0,0-.319-.089" transform="translate(-1280.244 -271.733)" fill="#b9b9b9"/>
      <path id="Path_1372" data-name="Path 1372" d="M1431.671,278.259h.827l-.772,4.375h-.784l.049-.264a1.562,1.562,0,0,1-.944.337,1.021,1.021,0,0,1-.79-.328,1.3,1.3,0,0,1-.3-.91,2.31,2.31,0,0,1,.193-.938,1.8,1.8,0,0,1,.6-.741,1.6,1.6,0,0,1,.968-.3,1.177,1.177,0,0,1,.7.208Zm-1.869,3.156q0,.613.521.613a1.1,1.1,0,0,0,.748-.331l.227-1.3a.779.779,0,0,0-.545-.215.788.788,0,0,0-.708.38,1.553,1.553,0,0,0-.242.852" transform="translate(-1319.328 -256.911)" fill="#b9b9b9"/>
    </g>
  </g>
</svg>
